# xmcd
#
# Track frame offsets:
#	150
#	17723
#	34947
#	50772
#	67577
#	84828
#	102113
#	117805
#	132742
#	151322
#	168042
#	185350
#	202711
#
# Disc length: 3000 seconds
#
# Revision: 2
# Processed by: cddbd v1.5.1PL2 Copyright (c) Steve Scherf et al.
# Submitted via: dBpowerAMP V4.0
#
DISCID=990bb60d
DTITLE=Ne-Yo - In My Own Words
DYEAR=2006
DGENRE=R&B
TTITLE0=Stay feat. Peedi Peedi
TTITLE1=Let Me Get This Right
TTITLE2=So Sick
TTITLE3=When You're Mad
TTITLE4=It Just Ain't Right
TTITLE5=Mirror
TTITLE6=Sign Me Up
TTITLE7=I Ain't Gotta Tell You
TTITLE8=Get Down Like That
TTITLE9=Sexy Love
TTITLE10=Let Go
TTITLE11=Time
TTITLE12=Get Down Like That (remix) feat. Ghostface Killah
EXTD=
EXTT0=
EXTT1=
EXTT2=
EXTT3=
EXTT4=
EXTT5=
EXTT6=
EXTT7=
EXTT8=
EXTT9=
EXTT10=
EXTT11=
EXTT12=
PLAYORDER=
